{"title":"Back.In.The.Day.2014.HDRiP.XViD-FiRE","uid":9472098,"size":1460497429,"categoryP":"video","categoryS":"movies","magnet":"?xt=urn:btih:69db3da76fcfdd3e630a530bfd8cb5476a97bb3f&amp;dn=Back.In.The.Day.2014.HDRiP.XViD-FiRE&amp;tr=udp%3A%2F%2Ftracker.openbittorrent.com%3A80&amp;tr=udp%3A%2F%2Fopen.demonii.com%3A1337&amp;tr=udp%3A%2F%2Ftracker.coppersurfer.tk%3A6969&amp;tr=udp%3A%2F%2Fexodus.desync.com%3A6969","seeders":1,"leechers":0,"uploader":"reloader786","files":-1,"time":1389602967,"description":"Info:\n\n\nTrailer:\n &lt;a href=&quot;\nhttp://www.vube.pk/back-in-the-day-official-trailer-2014-hd-video_23337e7a2.html&quot; rel=&quot;nofollow&quot; target=&quot;_NEW&quot;&gt;\nhttp://www.vube.pk/back-in-the-day-official-trailer-2014-hd-video_23337e7a2.html&lt;/a&gt;\nScreen:\n\n\nScreen: \n\n\nBack.In.The.Day.2014.HDRiP.XViD-FiRE\n\nFormat : AVI\nFormat/Info : Audio Video Interleave\nFile size : 1.36 GiB\nDuration : 1h 34mn\nOverall bit rate : 2 070 Kbps\nWriting application : VirtualDubMod 1.5.10.2 (build 2542/release)\nWriting library : VirtualDubMod build 2542/release\n\nVideo\n\nID : 0\nFormat : MPEG-4 Visual\nFormat profile : Advanced Simple@L5\nFormat settings, BVOP : 2\nFormat settings, QPel : No\nFormat settings, GMC : No warppoints\nFormat settings, Matrix : Default (H.263)\nMuxing mode : Packed bitstream\nCodec ID : XVID\nCodec ID/Hint : XviD\nDuration : 1h 34mn\nBit rate : 1 677 Kbps\nWidth : 720 pixels\nHeight : 384 pixels\nDisplay aspect ratio : 1.85:1\nFrame rate : 23.976 fps\nColor space : YUV\nChroma subsampling : 4:2:0\nBit depth : 8 bits\nScan type : Progressive\nCompression mode : Lossy\nBits/(Pixel*Frame) : 0.253\nStream size : 1.10 GiB (81%)\nWriting library : XviD 58\n\nAudio\n\nID : 1\nFormat : AC-3\nFormat/Info : Audio Coding 3\nMode extension : CM (complete main)\nFormat settings, Endianness : Big\nCodec ID : 2000\nDuration : 1h 34mn\nBit rate mode : Constant\nBit rate : 384 Kbps\nChannel(s) : 6 channels\nChannel positions : Front: L C R, Side: L R, LFE\nSampling rate : 48.0 KHz\nBit depth : 16 bits\nCompression mode : Lossy\nStream size : 258 MiB (19%)\nAlignment : Split accross interleaves\nInterleave, duration : 42 ms (1.00 video frame)\nInterleave, preload duration : 500 ms\n\n\nGenre: Comedy\n\nActors: Morena Baccarin, Michael Rosenbaum, Nick Swardson\n\n\nPlot: Sometimes in order to move forward, you have to go back. And in this raunchy comedy,\nJim Owens does just that when he heads home for his high school reunion. In an attempt to relive\nthe glory days with his boys and explore an old romance, he nearly destroys his hometown and friendships.","torrent":{"xt":"urn:btih:69db3da76fcfdd3e630a530bfd8cb5476a97bb3f","amp;dn":"Back.In.The.Day.2014.HDRiP.XViD-FiRE","amp;tr":["udp%3A%2F%2Ftracker.openbittorrent.com%3A80","udp%3A%2F%2Fopen.demonii.com%3A1337","udp%3A%2F%2Ftracker.coppersurfer.tk%3A6969","udp%3A%2F%2Fexodus.desync.com%3A6969"],"infoHash":"69db3da76fcfdd3e630a530bfd8cb5476a97bb3f","infoHashBuffer":{"type":"Buffer","data":[105,219,61,167,111,207,221,62,99,10,83,11,253,140,181,71,106,151,187,63]},"announce":[],"urlList":[]}}